<svg width="23" height="20" viewBox="0 0 23 20" fill="none" xmlns="http://www.w3.org/2000/svg">
<path d="M16.2148 13.4736L17.4648 12.2236C17.6602 12.0283 18 12.165 18 12.4463V18.126C18 19.1611 17.1602 20.001 16.125 20.001H2.375C1.33984 20.001 0.5 19.1611 0.5 18.126V4.37598C0.5 3.34082 1.33984 2.50098 2.375 2.50098H13.0586C13.3359 2.50098 13.4766 2.83691 13.2812 3.03613L12.0312 4.28613C11.9727 4.34473 11.8945 4.37598 11.8086 4.37598H2.375V18.126H16.125V13.6924C16.125 13.6104 16.1562 13.5322 16.2148 13.4736ZM22.332 5.59082L12.0742 15.8486L8.54297 16.2393C7.51953 16.3525 6.64844 15.4893 6.76172 14.458L7.15234 10.9268L17.4102 0.668945C18.3047 -0.225586 19.75 -0.225586 20.6406 0.668945L22.3281 2.35645C23.2227 3.25098 23.2227 4.7002 22.332 5.59082ZM18.4727 6.79785L16.2031 4.52832L8.94531 11.79L8.66016 14.3408L11.2109 14.0557L18.4727 6.79785ZM21.0039 3.68457L19.3164 1.99707C19.1562 1.83691 18.8945 1.83691 18.7383 1.99707L17.5312 3.2041L19.8008 5.47363L21.0078 4.2666C21.1641 4.10254 21.1641 3.84473 21.0039 3.68457Z" fill="#0F1419"/>
</svg>
